<?xml version="1.0"?>
<svg width="10cm" height="10cm" viewBox="0 0 352 352">
  <title>dracitlama.svg</title>
  <desc>Creator: SpiroJ version 1.0 beta</desc>
  <path fill="#33CC00" fill-rule="evenodd" stroke="#006633" stroke-width="2.0"
    d="M 336.000 176.000 L 335.772 187.044 L 335.089 197.756 L 333.953 207.815 L 332.369 216.922 L 330.342 224.813 L 327.881 231.268 L 324.995 236.116 L 321.694 239.243 L 317.990 240.596 L 313.899 240.186 L 309.435 238.083 L 304.616 234.421 L 299.458 229.385 L 293.983 223.210 L 288.209 216.172 L 282.160 208.576 L 275.857 200.746 L 269.325 193.015 L 262.587 185.712 L 255.669 179.150 L 248.597 173.614 L 241.398 169.354 L 234.097 166.575 L 226.722 165.426 L 219.301 166.000 L 211.861 168.328 L 204.430 172.377 L 197.034 178.055 L 189.702 185.209 L 182.459 193.634 L 175.333 203.079 L 168.349 213.257 L 161.533 223.854 L 154.909 234.540 L 148.501 244.981 L 142.332 254.851 L 136.423 263.844 L 130.797 271.683 L 125.471 278.133 L 120.465 283.004 L 115.795 286.165 L 111.477 287.542 L 107.526 287.125 L 103.955 284.964 L 100.773 281.172 L 97.992 275.919 L 95.618 269.425 L 93.659 261.952 L 92.118 253.798 L 91.000 245.282 L 90.305 236.735 L 90.032 228.490 L 90.180 220.866 L 90.745 214.159 L 91.721 208.633 L 93.100 204.508 L 94.875 201.953 L 97.035 201.081 L 99.567 201.944 L 102.459 204.532 L 105.695 208.770 L 109.259 214.527 L 113.134 221.615 L 117.301 229.799 L 121.739 238.801 L 126.428 248.316 L 131.346 258.019 L 136.468 267.576 L 141.773 276.658 L 147.235 284.951 L 152.828 292.168 L 158.528 298.059 L 164.307 302.419 L 170.140 305.097 L 176.000 306.000 L 181.860 305.097 L 187.693 302.419 L 193.472 298.059 L 199.172 292.168 L 204.765 284.951 L 210.227 276.658 L 215.532 267.576 L 220.654 258.019 L 225.572 248.316 L 230.261 238.801 L 234.699 229.799 L 238.866 221.615 L 242.741 214.527 L 246.305 208.770 L 249.541 204.532 L 252.433 201.944 L 254.965 201.081 L 257.125 201.953 L 258.900 204.508 L 260.279 208.633 L 261.255 214.159 L 261.820 220.866 L 261.968 228.490 L 261.695 236.735 L 261.000 245.282 L 259.882 253.798 L 258.341 261.952 L 256.382 269.425 L 254.008 275.919 L 251.227 281.172 L 248.045 284.964 L 244.474 287.125 L 240.523 287.542 L 236.205 286.165 L 231.535 283.004 L 226.529 278.133 L 221.203 271.683 L 215.577 263.844 L 209.668 254.851 L 203.499 244.981 L 197.091 234.540 L 190.467 223.854 L 183.651 213.257 L 176.667 203.079 L 169.541 193.634 L 162.298 185.209 L 154.966 178.055 L 147.570 172.377 L 140.139 168.328 L 132.699 166.000 L 125.278 165.426 L 117.903 166.575 L 110.602 169.354 L 103.403 173.614 L 96.331 179.150 L 89.413 185.712 L 82.675 193.015 L 76.143 200.746 L 69.840 208.576 L 63.791 216.172 L 58.017 223.210 L 52.542 229.385 L 47.384 234.421 L 42.565 238.083 L 38.101 240.186 L 34.010 240.596 L 30.306 239.243 L 27.005 236.116 L 24.119 231.268 L 21.658 224.813 L 19.631 216.922 L 18.047 207.815 L 16.911 197.756 L 16.228 187.044 L 16.000 176.000 L 16.228 164.956 L 16.911 154.244 L 18.047 144.185 L 19.631 135.078 L 21.658 127.187 L 24.119 120.732 L 27.005 115.884 L 30.306 112.757 L 34.010 111.404 L 38.101 111.814 L 42.565 113.917 L 47.384 117.579 L 52.542 122.615 L 58.017 128.790 L 63.791 135.828 L 69.840 143.424 L 76.143 151.254 L 82.675 158.985 L 89.413 166.288 L 96.331 172.850 L 103.403 178.386 L 110.602 182.646 L 117.903 185.425 L 125.278 186.574 L 132.699 186.000 L 140.139 183.672 L 147.570 179.623 L 154.966 173.945 L 162.298 166.791 L 169.541 158.366 L 176.667 148.921 L 183.651 138.743 L 190.467 128.146 L 197.091 117.460 L 203.499 107.019 L 209.668 97.149 L 215.577 88.156 L 221.203 80.317 L 226.529 73.867 L 231.535 68.996 L 236.205 65.835 L 240.523 64.458 L 244.474 64.875 L 248.045 67.036 L 251.227 70.828 L 254.008 76.081 L 256.382 82.575 L 258.341 90.048 L 259.882 98.202 L 261.000 106.718 L 261.695 115.265 L 261.968 123.510 L 261.820 131.134 L 261.255 137.841 L 260.279 143.367 L 258.900 147.492 L 257.125 150.047 L 254.965 150.919 L 252.433 150.056 L 249.541 147.468 L 246.305 143.230 L 242.741 137.473 L 238.866 130.385 L 234.699 122.201 L 230.261 113.199 L 225.572 103.684 L 220.654 93.981 L 215.532 84.424 L 210.227 75.342 L 204.765 67.049 L 199.172 59.832 L 193.472 53.941 L 187.693 49.581 L 181.860 46.903 L 176.000 46.000 L 170.140 46.903 L 164.307 49.581 L 158.528 53.941 L 152.828 59.832 L 147.235 67.049 L 141.773 75.342 L 136.468 84.424 L 131.346 93.981 L 126.428 103.684 L 121.739 113.199 L 117.301 122.201 L 113.134 130.385 L 109.259 137.473 L 105.695 143.230 L 102.459 147.468 L 99.567 150.056 L 97.035 150.919 L 94.875 150.047 L 93.100 147.492 L 91.721 143.367 L 90.745 137.841 L 90.180 131.134 L 90.032 123.510 L 90.305 115.265 L 91.000 106.718 L 92.118 98.202 L 93.659 90.048 L 95.618 82.575 L 97.992 76.081 L 100.773 70.828 L 103.955 67.036 L 107.526 64.875 L 111.477 64.458 L 115.795 65.835 L 120.465 68.996 L 125.471 73.867 L 130.797 80.317 L 136.423 88.156 L 142.332 97.149 L 148.501 107.019 L 154.909 117.460 L 161.533 128.146 L 168.349 138.743 L 175.333 148.921 L 182.459 158.366 L 189.702 166.791 L 197.034 173.945 L 204.430 179.623 L 211.861 183.672 L 219.301 186.000 L 226.722 186.574 L 234.097 185.425 L 241.398 182.646 L 248.597 178.386 L 255.669 172.850 L 262.587 166.288 L 269.325 158.985 L 275.857 151.254 L 282.160 143.424 L 288.209 135.828 L 293.983 128.790 L 299.458 122.615 L 304.616 117.579 L 309.435 113.917 L 313.899 111.814 L 317.990 111.404 L 321.694 112.757 L 324.995 115.884 L 327.881 120.732 L 330.342 127.187 L 332.369 135.078 L 333.953 144.185 L 335.089 154.244 L 335.772 164.956 L 336.000 176.000 L 336.000 176.000 z"
  />
</svg>
