<?xml version="1.0"?>
<svg width="10cm" height="10cm" viewBox="0 0 132 132">
  <title>lissajouse.svg</title>
  <desc>Creator: SpiroJ version 1.0 beta</desc>
  <path fill="#99FFCC" fill-rule="evenodd" stroke="#006666" stroke-width="1.0"
    d="M 126.000 66.000 L 125.882 71.621 L 125.527 77.044 L 124.937 82.075 L 124.115 86.536 L 123.063 90.271 L 121.787 93.145 L 120.290 95.057 L 118.578 95.941 L 116.660 95.763 L 114.541 94.532 L 112.231 92.289 L 109.738 89.115 L 107.073 85.123 L 104.245 80.453 L 101.267 75.271 L 98.150 69.760 L 94.905 64.116 L 91.547 58.539 L 88.087 53.227 L 84.541 48.366 L 80.921 44.131 L 77.243 40.670 L 73.520 38.107 L 69.767 36.531 L 66.000 36.000 L 62.233 36.531 L 58.480 38.107 L 54.757 40.670 L 51.079 44.131 L 47.459 48.366 L 43.913 53.227 L 40.453 58.539 L 37.095 64.116 L 33.850 69.760 L 30.733 75.271 L 27.755 80.453 L 24.927 85.123 L 22.262 89.115 L 19.769 92.289 L 17.459 94.532 L 15.340 95.763 L 13.422 95.941 L 11.710 95.057 L 10.213 93.145 L 8.937 90.271 L 7.885 86.536 L 7.063 82.075 L 6.473 77.044 L 6.118 71.621 L 6.000 66.000 L 6.118 60.379 L 6.473 54.956 L 7.063 49.925 L 7.885 45.464 L 8.937 41.729 L 10.213 38.855 L 11.710 36.943 L 13.422 36.059 L 15.340 36.237 L 17.459 37.468 L 19.769 39.711 L 22.262 42.885 L 24.927 46.877 L 27.755 51.547 L 30.733 56.729 L 33.850 62.240 L 37.095 67.884 L 40.453 73.461 L 43.913 78.773 L 47.459 83.634 L 51.079 87.869 L 54.757 91.330 L 58.480 93.893 L 62.233 95.469 L 66.000 96.000 L 69.767 95.469 L 73.520 93.893 L 77.243 91.330 L 80.921 87.869 L 84.541 83.634 L 88.087 78.773 L 91.547 73.461 L 94.905 67.884 L 98.150 62.240 L 101.267 56.729 L 104.245 51.547 L 107.073 46.877 L 109.738 42.885 L 112.231 39.711 L 114.541 37.468 L 116.660 36.237 L 118.578 36.059 L 120.290 36.943 L 121.787 38.855 L 123.063 41.729 L 124.115 45.464 L 124.937 49.925 L 125.527 54.956 L 125.882 60.379 L 126.000 66.000 L 126.000 66.000 z"
  />
</svg>
