<?xml version="1.0"?>
<svg width="10cm" height="10cm" viewBox="0 0 220 220">
  <title>pokus.svg</title>
  <desc>Creator: SpiroJ version 1.0 beta</desc>
  <path fill="#CCCCFF" fill-rule="evenodd" stroke="#3333FF" stroke-width="2.0"
    d="M 210.000 110.000 L 209.474 119.054 L 207.902 127.982 L 205.310 136.656 L 201.733 144.956 L 197.226 152.765 L 191.856 159.975 L 185.701 166.486 L 178.852 172.208 L 171.410 177.063 L 163.486 180.988 L 155.195 183.930 L 146.661 185.854 L 138.009 186.738 L 129.367 186.576 L 120.860 185.379 L 112.615 183.172 L 104.752 179.995 L 97.387 175.902 L 90.626 170.962 L 84.568 165.256 L 79.300 158.876 L 74.900 151.924 L 71.429 144.512 L 68.936 136.756 L 67.456 128.779 L 67.006 120.708 L 67.592 112.669 L 69.200 104.790 L 71.803 97.193 L 75.359 90.000 L 79.811 83.324 L 85.088 77.271 L 91.108 71.939 L 97.777 67.412 L 104.991 63.766 L 112.639 61.060 L 120.602 59.341 L 128.757 58.640 L 136.978 58.976 L 145.137 60.347 L 153.107 62.740 L 160.766 66.126 L 167.993 70.458 L 174.676 75.679 L 180.711 81.716 L 186.001 88.484 L 190.462 95.888 L 194.022 103.823 L 196.623 112.175 L 198.220 120.826 L 198.784 129.651 L 198.299 138.523 L 196.768 147.316 L 194.208 155.902 L 190.649 164.158 L 186.139 171.965 L 180.739 179.213 L 174.524 185.795 L 167.578 191.620 L 160.000 196.603 L 151.895 200.674 L 143.379 203.777 L 134.570 205.868 L 125.594 206.921 L 116.578 206.923 L 107.648 205.877 L 98.932 203.801 L 90.552 200.731 L 82.626 196.714 L 75.265 191.814 L 68.572 186.105 L 62.639 179.677 L 57.548 172.626 L 53.366 165.060 L 50.150 157.095 L 47.939 148.851 L 46.759 140.453 L 46.621 132.027 L 47.518 123.702 L 49.431 115.603 L 52.323 107.851 L 56.143 100.565 L 60.826 93.852 L 66.297 87.816 L 72.464 82.545 L 79.230 78.121 L 86.484 74.608 L 94.112 72.061 L 101.993 70.517 L 110.000 70.000 L 118.007 70.517 L 125.888 72.061 L 133.516 74.608 L 140.770 78.121 L 147.536 82.545 L 153.703 87.816 L 159.174 93.852 L 163.857 100.565 L 167.677 107.851 L 170.569 115.603 L 172.482 123.702 L 173.379 132.027 L 173.241 140.453 L 172.061 148.851 L 169.850 157.095 L 166.634 165.060 L 162.452 172.626 L 157.361 179.677 L 151.428 186.105 L 144.735 191.814 L 137.374 196.714 L 129.448 200.731 L 121.068 203.801 L 112.352 205.877 L 103.422 206.923 L 94.406 206.921 L 85.430 205.868 L 76.621 203.777 L 68.105 200.674 L 60.000 196.603 L 52.422 191.620 L 45.476 185.795 L 39.261 179.213 L 33.861 171.965 L 29.351 164.158 L 25.792 155.902 L 23.232 147.316 L 21.701 138.523 L 21.216 129.651 L 21.780 120.826 L 23.377 112.175 L 25.978 103.823 L 29.538 95.888 L 33.999 88.484 L 39.289 81.716 L 45.324 75.679 L 52.007 70.458 L 59.234 66.126 L 66.893 62.740 L 74.863 60.347 L 83.022 58.976 L 91.243 58.640 L 99.398 59.341 L 107.361 61.060 L 115.009 63.766 L 122.223 67.412 L 128.892 71.939 L 134.912 77.271 L 140.189 83.324 L 144.641 90.000 L 148.197 97.193 L 150.800 104.790 L 152.408 112.669 L 152.994 120.708 L 152.544 128.779 L 151.064 136.756 L 148.571 144.512 L 145.100 151.924 L 140.700 158.876 L 135.432 165.256 L 129.374 170.962 L 122.613 175.902 L 115.248 179.995 L 107.385 183.172 L 99.140 185.379 L 90.633 186.576 L 81.991 186.738 L 73.339 185.854 L 64.805 183.930 L 56.514 180.988 L 48.590 177.063 L 41.148 172.208 L 34.299 166.486 L 28.144 159.975 L 22.774 152.765 L 18.267 144.956 L 14.690 136.656 L 12.098 127.982 L 10.526 119.054 L 10.000 110.000 L 10.526 100.946 L 12.098 92.018 L 14.690 83.344 L 18.267 75.044 L 22.774 67.235 L 28.144 60.025 L 34.299 53.514 L 41.148 47.792 L 48.590 42.937 L 56.514 39.012 L 64.805 36.070 L 73.339 34.146 L 81.991 33.262 L 90.633 33.424 L 99.140 34.621 L 107.385 36.828 L 115.248 40.005 L 122.613 44.098 L 129.374 49.038 L 135.432 54.744 L 140.700 61.124 L 145.100 68.076 L 148.571 75.488 L 151.064 83.244 L 152.544 91.221 L 152.994 99.292 L 152.408 107.331 L 150.800 115.210 L 148.197 122.807 L 144.641 130.000 L 140.189 136.676 L 134.912 142.729 L 128.892 148.061 L 122.223 152.588 L 115.009 156.234 L 107.361 158.940 L 99.398 160.659 L 91.243 161.360 L 83.022 161.024 L 74.863 159.653 L 66.893 157.260 L 59.234 153.874 L 52.007 149.542 L 45.324 144.321 L 39.289 138.284 L 33.999 131.516 L 29.538 124.112 L 25.978 116.177 L 23.377 107.825 L 21.780 99.174 L 21.216 90.349 L 21.701 81.477 L 23.232 72.684 L 25.792 64.098 L 29.351 55.842 L 33.861 48.035 L 39.261 40.787 L 45.476 34.205 L 52.422 28.380 L 60.000 23.397 L 68.105 19.326 L 76.621 16.223 L 85.430 14.132 L 94.406 13.079 L 103.422 13.077 L 112.352 14.123 L 121.068 16.199 L 129.448 19.269 L 137.374 23.286 L 144.735 28.186 L 151.428 33.895 L 157.361 40.323 L 162.452 47.374 L 166.634 54.940 L 169.850 62.905 L 172.061 71.149 L 173.241 79.547 L 173.379 87.973 L 172.482 96.298 L 170.569 104.397 L 167.677 112.149 L 163.857 119.435 L 159.174 126.148 L 153.703 132.184 L 147.536 137.455 L 140.770 141.879 L 133.516 145.392 L 125.888 147.939 L 118.007 149.483 L 110.000 150.000 L 101.993 149.483 L 94.112 147.939 L 86.484 145.392 L 79.230 141.879 L 72.464 137.455 L 66.297 132.184 L 60.826 126.148 L 56.143 119.435 L 52.323 112.149 L 49.431 104.397 L 47.518 96.298 L 46.621 87.973 L 46.759 79.547 L 47.939 71.149 L 50.150 62.905 L 53.366 54.940 L 57.548 47.374 L 62.639 40.323 L 68.572 33.895 L 75.265 28.186 L 82.626 23.286 L 90.552 19.269 L 98.932 16.199 L 107.648 14.123 L 116.578 13.077 L 125.594 13.079 L 134.570 14.132 L 143.379 16.223 L 151.895 19.326 L 160.000 23.397 L 167.578 28.380 L 174.524 34.205 L 180.739 40.787 L 186.139 48.035 L 190.649 55.842 L 194.208 64.098 L 196.768 72.684 L 198.299 81.477 L 198.784 90.349 L 198.220 99.174 L 196.623 107.825 L 194.022 116.177 L 190.462 124.112 L 186.001 131.516 L 180.711 138.284 L 174.676 144.321 L 167.993 149.542 L 160.766 153.874 L 153.107 157.260 L 145.137 159.653 L 136.978 161.024 L 128.757 161.360 L 120.602 160.659 L 112.639 158.940 L 104.991 156.234 L 97.777 152.588 L 91.108 148.061 L 85.088 142.729 L 79.811 136.676 L 75.359 130.000 L 71.803 122.807 L 69.200 115.210 L 67.592 107.331 L 67.006 99.292 L 67.456 91.221 L 68.936 83.244 L 71.429 75.488 L 74.900 68.076 L 79.300 61.124 L 84.568 54.744 L 90.626 49.038 L 97.387 44.098 L 104.752 40.005 L 112.615 36.828 L 120.860 34.621 L 129.367 33.424 L 138.009 33.262 L 146.661 34.146 L 155.195 36.070 L 163.486 39.012 L 171.410 42.937 L 178.852 47.792 L 185.701 53.514 L 191.856 60.025 L 197.226 67.235 L 201.733 75.044 L 205.310 83.344 L 207.902 92.018 L 209.474 100.946 L 210.000 110.000 L 210.000 110.000 z"
  />
</svg>
